<svg width="202" height="46" viewBox="0 0 202 46" fill="none" xmlns="http://www.w3.org/2000/svg">
<path d="M38 45V40C38 37.3478 37.0254 34.8043 35.2907 32.9289C33.556 31.0536 31.2033 30 28.75 30H10.25C7.79675 30 5.44397 31.0536 3.70926 32.9289C1.97455 34.8043 1 37.3478 1 40V45" stroke="white" stroke-width="2" stroke-linecap="round" stroke-linejoin="round"/>
<path d="M20 21C24.9706 21 29 16.5228 29 11C29 5.47715 24.9706 1 20 1C15.0294 1 11 5.47715 11 11C11 16.5228 15.0294 21 20 21Z" stroke="white" stroke-width="2" stroke-linecap="round" stroke-linejoin="round"/>
<path d="M63.36 23.6H67.6V38H63.36V23.6ZM76.3131 38.24C75.0065 38.24 73.8598 38.06 72.8731 37.7C71.8865 37.34 71.1198 36.74 70.5731 35.9C70.0265 35.06 69.7531 33.92 69.7531 32.48C69.7531 31.3067 69.9865 30.2933 70.4531 29.44C70.9331 28.5867 71.6065 27.9267 72.4731 27.46C73.3531 26.9933 74.3931 26.7533 75.5931 26.74C76.1131 26.7267 76.5531 26.7667 76.9131 26.86C77.2731 26.9533 77.4998 27.0133 77.5931 27.04V30C77.3931 29.9333 77.1998 29.88 77.0131 29.84C76.8398 29.7867 76.6331 29.76 76.3931 29.76C75.5665 29.76 74.9731 30.0067 74.6131 30.5C74.2531 30.9933 74.0731 31.6533 74.0731 32.48C74.0731 32.96 74.1398 33.4067 74.2731 33.82C74.4198 34.2333 74.6598 34.5667 74.9931 34.82C75.3398 35.0733 75.8065 35.2 76.3931 35.2C76.7131 35.2 76.9598 35.1867 77.1331 35.16C77.3198 35.12 77.4731 35.08 77.5931 35.04L77.3931 36.04C77.2198 35.8 77.1131 35.52 77.0731 35.2C77.0465 34.8667 77.0331 34.4933 77.0331 34.08V26.62C77.0331 26.2333 77.0198 25.7933 76.9931 25.3C76.9798 24.8067 76.9531 24.34 76.9131 23.9C76.8865 23.46 76.8465 23.1467 76.7931 22.96L76.8731 22.8H81.2731V34.16C81.2731 34.4267 81.2731 34.76 81.2731 35.16C81.2865 35.56 81.2998 35.9533 81.3131 36.34C81.3398 36.7267 81.3798 37.04 81.4331 37.28L81.3531 37.44C80.7931 37.68 80.0931 37.8733 79.2531 38.02C78.4131 38.1667 77.4331 38.24 76.3131 38.24ZM90.1488 38.24C89.1754 38.24 88.2688 38.1467 87.4288 37.96C86.5888 37.76 85.8554 37.4467 85.2288 37.02C84.6154 36.58 84.1354 35.9867 83.7887 35.24C83.4421 34.4933 83.2688 33.5733 83.2688 32.48C83.2688 31.2533 83.5021 30.2133 83.9688 29.36C84.4488 28.4933 85.1221 27.84 85.9888 27.4C86.8688 26.9467 87.9088 26.72 89.1088 26.72C90.3888 26.72 91.4354 26.9867 92.2488 27.52C93.0621 28.0533 93.6488 28.78 94.0088 29.7C94.3821 30.62 94.5354 31.6533 94.4688 32.8L94.4288 33.6H85.8288V31.28H90.4688V31.2C90.4688 30.68 90.3554 30.2733 90.1288 29.98C89.9021 29.6733 89.5354 29.52 89.0288 29.52C88.6821 29.52 88.3954 29.6 88.1688 29.76C87.9421 29.92 87.7754 30.1867 87.6688 30.56C87.5621 30.9333 87.5088 31.44 87.5088 32.08V32.96C87.5088 33.52 87.6354 33.96 87.8888 34.28C88.1421 34.5867 88.4954 34.8067 88.9488 34.94C89.4021 35.06 89.9354 35.12 90.5488 35.12C91.1488 35.12 91.7088 35.0667 92.2288 34.96C92.7488 34.8533 93.1488 34.72 93.4288 34.56H93.6688V37.76C93.2288 37.92 92.7221 38.04 92.1488 38.12C91.5888 38.2 90.9221 38.24 90.1488 38.24ZM96.5436 38V31.28C96.5436 31.0133 96.5369 30.6733 96.5236 30.26C96.5103 29.8467 96.4836 29.44 96.4436 29.04C96.4169 28.64 96.3703 28.32 96.3036 28.08L96.3836 27.92C96.8636 27.7067 97.3903 27.5133 97.9636 27.34C98.5503 27.1533 99.1769 27.0067 99.8436 26.9C100.51 26.78 101.21 26.72 101.944 26.72C102.65 26.72 103.344 26.7933 104.024 26.94C104.717 27.0867 105.344 27.3467 105.904 27.72C106.464 28.0933 106.91 28.6133 107.244 29.28C107.577 29.9467 107.744 30.8 107.744 31.84V38H103.504V31.92C103.504 31.4133 103.424 31.02 103.264 30.74C103.104 30.46 102.884 30.2667 102.604 30.16C102.324 30.0533 102.01 30 101.664 30C101.304 30 100.977 30.0467 100.684 30.14C100.404 30.2333 100.144 30.32 99.9036 30.4L100.464 29.5C100.57 29.7133 100.65 29.9933 100.704 30.34C100.757 30.6733 100.784 31.12 100.784 31.68V38H96.5436ZM116.077 38.16C115.09 38.16 114.197 38.04 113.397 37.8C112.597 37.5467 111.964 37.1 111.497 36.46C111.03 35.8067 110.797 34.88 110.797 33.68V24.4H115.037V33.36C115.037 33.92 115.177 34.3133 115.457 34.54C115.75 34.7667 116.197 34.88 116.797 34.88C117.024 34.88 117.237 34.8533 117.437 34.8C117.65 34.7467 117.837 34.6933 117.997 34.64H118.237V37.92C117.917 38 117.59 38.06 117.257 38.1C116.937 38.14 116.544 38.16 116.077 38.16ZM108.957 30.24V27.04H117.797V30.24H108.957ZM122.199 25.6C121.559 25.6 121.039 25.4267 120.639 25.08C120.239 24.72 120.039 24.2 120.039 23.52C120.039 22.84 120.239 22.3267 120.639 21.98C121.039 21.62 121.559 21.44 122.199 21.44C122.839 21.44 123.359 21.62 123.759 21.98C124.159 22.3267 124.359 22.84 124.359 23.52C124.359 24.2 124.159 24.72 123.759 25.08C123.359 25.4267 122.839 25.6 122.199 25.6ZM120.079 38V30.32C120.079 30.0533 120.072 29.72 120.059 29.32C120.045 28.92 120.019 28.5267 119.979 28.14C119.952 27.7533 119.905 27.44 119.839 27.2L119.919 27.04H124.319V38H120.079ZM136.312 38V27.04H140.552V38H136.312ZM138.472 25.6C137.832 25.6 137.312 25.4267 136.912 25.08C136.512 24.72 136.312 24.2 136.312 23.52C136.312 22.84 136.512 22.3267 136.912 21.98C137.312 21.62 137.832 21.44 138.472 21.44C139.112 21.44 139.632 21.62 140.032 21.98C140.432 22.3267 140.632 22.84 140.632 23.52C140.632 24.2 140.432 24.72 140.032 25.08C139.632 25.4267 139.112 25.6 138.472 25.6ZM127.672 38V27.28C127.672 26.1333 127.899 25.2067 128.352 24.5C128.819 23.7933 129.452 23.28 130.252 22.96C131.065 22.64 131.992 22.48 133.032 22.48C133.432 22.48 133.745 22.5 133.972 22.54C134.212 22.5667 134.432 22.6 134.632 22.64V25.68H134.392C134.139 25.5733 133.845 25.52 133.512 25.52C133.032 25.52 132.645 25.62 132.352 25.82C132.059 26.0067 131.912 26.44 131.912 27.12V38H127.672ZM125.832 30.24V27.04H138.312V30.24H125.832ZM142.605 32.48C142.605 31.0933 142.891 29.98 143.465 29.14C144.051 28.2867 144.838 27.6733 145.825 27.3C146.825 26.9133 147.938 26.72 149.165 26.72C150.085 26.72 150.885 26.8267 151.565 27.04V30.32H151.325C151.125 30.24 150.898 30.1667 150.645 30.1C150.391 30.0333 150.085 30 149.725 30C148.805 30 148.105 30.2133 147.625 30.64C147.158 31.0667 146.925 31.68 146.925 32.48C146.925 33.28 147.158 33.8933 147.625 34.32C148.105 34.7467 148.805 34.96 149.725 34.96C150.085 34.96 150.391 34.9267 150.645 34.86C150.898 34.7933 151.125 34.72 151.325 34.64H151.565V37.92C150.885 38.1333 150.085 38.24 149.165 38.24C147.898 38.24 146.771 38.0533 145.785 37.68C144.798 37.2933 144.018 36.68 143.445 35.84C142.885 34.9867 142.605 33.8667 142.605 32.48ZM158.847 38.24C157.007 38.24 155.614 37.9867 154.667 37.48C153.721 36.96 153.247 36.04 153.247 34.72C153.247 33.8933 153.454 33.2267 153.867 32.72C154.294 32.2133 154.867 31.8467 155.587 31.62C156.321 31.3933 157.141 31.28 158.047 31.28C158.367 31.28 158.687 31.2933 159.007 31.32C159.327 31.3333 159.647 31.3733 159.967 31.44V33.76C159.847 33.72 159.661 33.6867 159.407 33.66C159.167 33.62 158.927 33.6 158.687 33.6C158.127 33.6 157.721 33.6867 157.467 33.86C157.214 34.02 157.087 34.28 157.087 34.64C157.087 35 157.221 35.2533 157.487 35.4C157.754 35.5333 158.127 35.6 158.607 35.6C158.981 35.6 159.334 35.56 159.667 35.48C160.014 35.4 160.287 35.2333 160.487 34.98L160.047 36.14C159.941 35.8867 159.854 35.6667 159.787 35.48C159.721 35.28 159.667 35.0733 159.627 34.86C159.601 34.6467 159.581 34.38 159.567 34.06C159.567 33.74 159.567 33.32 159.567 32.8V31.36C159.567 30.9333 159.481 30.6067 159.307 30.38C159.134 30.14 158.874 29.98 158.527 29.9C158.181 29.8067 157.754 29.76 157.247 29.76C156.647 29.76 156.094 29.8067 155.587 29.9C155.094 29.98 154.687 30.0933 154.367 30.24H154.127V27.12C154.607 27 155.147 26.9067 155.747 26.84C156.347 26.76 157.007 26.72 157.727 26.72C158.607 26.72 159.407 26.8 160.127 26.96C160.861 27.1067 161.487 27.3667 162.007 27.74C162.541 28.1 162.947 28.6 163.227 29.24C163.507 29.88 163.647 30.6933 163.647 31.68V34C163.647 34.2933 163.654 34.6467 163.667 35.06C163.681 35.46 163.701 35.86 163.727 36.26C163.767 36.6467 163.821 36.96 163.887 37.2L163.807 37.36C163.327 37.5333 162.827 37.6867 162.307 37.82C161.787 37.9533 161.241 38.0533 160.667 38.12C160.094 38.2 159.487 38.24 158.847 38.24ZM165.573 32.48C165.573 31.0933 165.86 29.98 166.433 29.14C167.02 28.2867 167.807 27.6733 168.793 27.3C169.793 26.9133 170.907 26.72 172.133 26.72C173.053 26.72 173.853 26.8267 174.533 27.04V30.32H174.293C174.093 30.24 173.867 30.1667 173.613 30.1C173.36 30.0333 173.053 30 172.693 30C171.773 30 171.073 30.2133 170.593 30.64C170.127 31.0667 169.893 31.68 169.893 32.48C169.893 33.28 170.127 33.8933 170.593 34.32C171.073 34.7467 171.773 34.96 172.693 34.96C173.053 34.96 173.36 34.9267 173.613 34.86C173.867 34.7933 174.093 34.72 174.293 34.64H174.533V37.92C173.853 38.1333 173.053 38.24 172.133 38.24C170.867 38.24 169.74 38.0533 168.753 37.68C167.767 37.2933 166.987 36.68 166.413 35.84C165.853 34.9867 165.573 33.8667 165.573 32.48ZM170.893 37.52V38.64C171.573 38.72 172.1 38.96 172.473 39.36C172.86 39.76 173.053 40.24 173.053 40.8C173.053 41.3333 172.913 41.76 172.633 42.08C172.353 42.4 171.993 42.6333 171.553 42.78C171.113 42.9267 170.653 43 170.173 43C169.813 43 169.473 42.98 169.153 42.94C168.847 42.9 168.573 42.84 168.333 42.76V41.2H168.413C168.653 41.28 168.893 41.34 169.133 41.38C169.387 41.42 169.653 41.44 169.933 41.44C170.373 41.44 170.667 41.3667 170.813 41.22C170.973 41.0733 171.053 40.8933 171.053 40.68C171.053 40.4133 170.907 40.2067 170.613 40.06C170.32 39.9133 169.853 39.84 169.213 39.84V37.52H170.893ZM181.816 38.24C179.976 38.24 178.583 37.9867 177.636 37.48C176.689 36.96 176.216 36.04 176.216 34.72C176.216 33.8933 176.423 33.2267 176.836 32.72C177.263 32.2133 177.836 31.8467 178.556 31.62C179.289 31.3933 180.109 31.28 181.016 31.28C181.336 31.28 181.656 31.2933 181.976 31.32C182.296 31.3333 182.616 31.3733 182.936 31.44V33.76C182.816 33.72 182.629 33.6867 182.376 33.66C182.136 33.62 181.896 33.6 181.656 33.6C181.096 33.6 180.689 33.6867 180.436 33.86C180.183 34.02 180.056 34.28 180.056 34.64C180.056 35 180.189 35.2533 180.456 35.4C180.723 35.5333 181.096 35.6 181.576 35.6C181.949 35.6 182.303 35.56 182.636 35.48C182.983 35.4 183.256 35.2333 183.456 34.98L183.016 36.14C182.909 35.8867 182.823 35.6667 182.756 35.48C182.689 35.28 182.636 35.0733 182.596 34.86C182.569 34.6467 182.549 34.38 182.536 34.06C182.536 33.74 182.536 33.32 182.536 32.8V31.36C182.536 30.9333 182.449 30.6067 182.276 30.38C182.103 30.14 181.843 29.98 181.496 29.9C181.149 29.8067 180.723 29.76 180.216 29.76C179.616 29.76 179.063 29.8067 178.556 29.9C178.063 29.98 177.656 30.0933 177.336 30.24H177.096V27.12C177.576 27 178.116 26.9067 178.716 26.84C179.316 26.76 179.976 26.72 180.696 26.72C181.576 26.72 182.376 26.8 183.096 26.96C183.829 27.1067 184.456 27.3667 184.976 27.74C185.509 28.1 185.916 28.6 186.196 29.24C186.476 29.88 186.616 30.6933 186.616 31.68V34C186.616 34.2933 186.623 34.6467 186.636 35.06C186.649 35.46 186.669 35.86 186.696 36.26C186.736 36.6467 186.789 36.96 186.856 37.2L186.776 37.36C186.296 37.5333 185.796 37.6867 185.276 37.82C184.756 37.9533 184.209 38.0533 183.636 38.12C183.063 38.2 182.456 38.24 181.816 38.24ZM177.616 26.08C177.616 25.52 177.696 24.9933 177.856 24.5C178.016 23.9933 178.276 23.5867 178.636 23.28C178.996 22.96 179.483 22.8 180.096 22.8C180.496 22.8 180.843 22.8733 181.136 23.02C181.429 23.1667 181.689 23.3333 181.916 23.52C182.103 23.6667 182.283 23.8133 182.456 23.96C182.629 24.0933 182.823 24.16 183.036 24.16C183.356 24.16 183.556 24.0333 183.636 23.78C183.729 23.5267 183.776 23.2 183.776 22.8H185.696C185.696 23.36 185.616 23.8933 185.456 24.4C185.296 24.8933 185.036 25.3 184.676 25.62C184.316 25.9267 183.829 26.08 183.216 26.08C182.843 26.08 182.509 26.02 182.216 25.9C181.936 25.7667 181.683 25.6133 181.456 25.44C181.256 25.28 181.063 25.12 180.876 24.96C180.689 24.8 180.483 24.72 180.256 24.72C179.936 24.72 179.736 24.8467 179.656 25.1C179.576 25.3533 179.536 25.68 179.536 26.08H177.616ZM188.542 32.48C188.542 31.1467 188.796 30.06 189.302 29.22C189.809 28.3667 190.509 27.74 191.402 27.34C192.296 26.9267 193.316 26.72 194.462 26.72C195.609 26.72 196.629 26.9267 197.522 27.34C198.416 27.74 199.116 28.3667 199.622 29.22C200.129 30.06 200.382 31.1467 200.382 32.48C200.382 33.8133 200.129 34.9067 199.622 35.76C199.116 36.6 198.416 37.2267 197.522 37.64C196.629 38.04 195.609 38.24 194.462 38.24C193.316 38.24 192.296 38.04 191.402 37.64C190.509 37.2267 189.809 36.6 189.302 35.76C188.796 34.9067 188.542 33.8133 188.542 32.48ZM192.862 32.48C192.862 33.4 192.989 34.1 193.242 34.58C193.496 35.0467 193.902 35.28 194.462 35.28C195.022 35.28 195.429 35.0467 195.682 34.58C195.936 34.1 196.062 33.4 196.062 32.48C196.062 31.56 195.936 30.8667 195.682 30.4C195.429 29.92 195.022 29.68 194.462 29.68C193.902 29.68 193.496 29.92 193.242 30.4C192.989 30.8667 192.862 31.56 192.862 32.48Z" fill="white"/>
</svg>
